<svg width="32" height="32" viewBox="0 0 32 32" fill="none" xmlns="http://www.w3.org/2000/svg">
<path d="M16 3C17.1046 3 18 3.89543 18 5C18 5.93162 17.3622 6.71129 16.5 6.93359V13H15.5V6.93359C14.6378 6.71129 14 5.93162 14 5C14 3.89543 14.8954 3 16 3Z" fill="url(#paint0_linear_121_1252)"/>
<path d="M27 14C28.1046 14 29 14.8954 29 16C29 17.1046 28.1046 18 27 18C26.0683 18 25.2877 17.3623 25.0654 16.5H19V15.5H25.0654C25.2877 14.6377 26.0683 14 27 14Z" fill="url(#paint1_linear_121_1252)"/>
<path d="M5 14C5.93171 14 6.71235 14.6377 6.93457 15.5H13V16.5H6.93457C6.71235 17.3623 5.93171 18 5 18C3.89543 18 3 17.1046 3 16C3 14.8954 3.89543 14 5 14Z" fill="url(#paint2_linear_121_1252)"/>
<path d="M16.5 25.0654C17.3623 25.2877 18 26.0683 18 27C18 28.1046 17.1046 29 16 29C14.8954 29 14 28.1046 14 27C14 26.0683 14.6377 25.2877 15.5 25.0654V19H16.5V25.0654Z" fill="url(#paint3_linear_121_1252)"/>
<path d="M7.51472 7.51473C7.90525 7.1242 8.53826 7.1242 8.92879 7.51473C9.19032 7.77626 9.27536 8.14615 9.1866 8.47957L12.1104 11.4034L11.4034 12.1104L8.47957 9.1866C8.14615 9.27536 7.77625 9.19031 7.51472 8.92879C7.1242 8.53826 7.1242 7.90525 7.51472 7.51473Z" fill="url(#paint4_linear_121_1252)"/>
<path d="M23.5195 22.8125C23.8531 22.7235 24.2237 22.8096 24.4854 23.0713C24.8757 23.4618 24.8758 24.0949 24.4854 24.4854C24.0949 24.8758 23.4618 24.8757 23.0713 24.4854C22.8096 24.2237 22.7235 23.8531 22.8125 23.5195L19.8887 20.5967L20.5967 19.8887L23.5195 22.8125Z" fill="url(#paint5_linear_121_1252)"/>
<circle cx="16" cy="16" r="3" fill="#FED738"/>
<defs>
<linearGradient id="paint0_linear_121_1252" x1="16" y1="3" x2="16" y2="13" gradientUnits="userSpaceOnUse">
<stop stop-color="#0575E3"/>
<stop offset="0.8" stop-color="#35AADE"/>
<stop offset="1" stop-color="#57CEDA"/>
</linearGradient>
<linearGradient id="paint1_linear_121_1252" x1="29" y1="16" x2="19" y2="16" gradientUnits="userSpaceOnUse">
<stop stop-color="#0575E3"/>
<stop offset="0.8" stop-color="#35AADE"/>
<stop offset="1" stop-color="#57CEDA"/>
</linearGradient>
<linearGradient id="paint2_linear_121_1252" x1="3" y1="16" x2="13" y2="16" gradientUnits="userSpaceOnUse">
<stop stop-color="#0575E3"/>
<stop offset="0.8" stop-color="#35AADE"/>
<stop offset="1" stop-color="#57CEDA"/>
</linearGradient>
<linearGradient id="paint3_linear_121_1252" x1="16" y1="29" x2="16" y2="19" gradientUnits="userSpaceOnUse">
<stop stop-color="#0575E3"/>
<stop offset="0.8" stop-color="#35AADE"/>
<stop offset="1" stop-color="#57CEDA"/>
</linearGradient>
<linearGradient id="paint4_linear_121_1252" x1="7.5" y1="7.5" x2="12" y2="12" gradientUnits="userSpaceOnUse">
<stop stop-color="#0575E3"/>
<stop offset="0.8" stop-color="#35AADE"/>
<stop offset="1" stop-color="#57CEDA"/>
</linearGradient>
<linearGradient id="paint5_linear_121_1252" x1="24.5" y1="24.5" x2="20" y2="20" gradientUnits="userSpaceOnUse">
<stop stop-color="#0575E3"/>
<stop offset="0.8" stop-color="#35AADE"/>
<stop offset="1" stop-color="#57CEDA"/>
</linearGradient>
</defs>
</svg>
